<?xml version="1.0" standalone="no"?>
<!DOCTYPE svg PUBLIC "-//W3C//DTD SVG 20010904//EN"
 "http://www.w3.org/TR/2001/REC-SVG-20010904/DTD/svg10.dtd">
<svg version="1.0" xmlns="http://www.w3.org/2000/svg"
 width="223.000000pt" height="229.000000pt" viewBox="0 0 223.000000 229.000000"
 preserveAspectRatio="xMidYMid meet">
<metadata>
Created by potrace 1.10, written by Peter Selinger 2001-2011
</metadata>
<g transform="translate(0.000000,229.000000) scale(0.100000,-0.100000)"
fill="#000000" stroke="none">
<path d="M1625 2110 c-135 -15 -282 -68 -397 -142 -75 -48 -219 -194 -268
-271 l-35 -55 -205 -4 c-195 -3 -207 -4 -254 -28 -63 -32 -78 -51 -195 -248
-137 -232 -133 -224 -110 -275 20 -43 45 -47 314 -47 230 0 259 -2 308 -20 73
-27 127 -76 168 -152 l34 -63 5 -283 c5 -269 6 -284 25 -298 30 -22 64 -28 91
-15 46 21 366 214 394 238 16 13 40 47 54 75 25 51 26 57 26 254 l0 202 28 17
c87 57 183 138 238 203 73 85 163 258 189 362 21 85 31 315 17 405 -14 85 -35
116 -93 133 -55 16 -241 23 -334 12z m342 -45 c59 -38 63 -55 64 -256 0 -156
-10 -218 -57 -338 -74 -188 -153 -285 -364 -443 l-45 -34 -10 -220 c-10 -216
-11 -221 -37 -262 -22 -33 -132 -122 -152 -122 -2 0 -56 -32 -120 -70 -63 -39
-127 -75 -141 -80 -33 -13 -78 -2 -71 16 3 8 0 13 -7 11 -9 -1 -13 65 -17 273
-5 256 -7 278 -27 322 -31 68 -108 147 -171 175 -51 22 -66 23 -315 27 -144 2
-270 5 -280 8 -49 12 -52 64 -6 141 19 32 51 86 71 120 20 34 46 79 58 100 11
21 25 35 30 32 5 -3 7 0 5 8 -8 21 70 103 114 121 30 11 91 17 233 21 106 3
200 8 208 11 8 2 29 26 47 52 38 55 113 147 113 138 0 -4 6 -1 14 6 8 7 13 15
11 16 -6 7 94 91 128 108 17 9 34 20 37 24 16 23 196 90 295 109 28 5 121 9
207 7 132 -3 161 -6 185 -21z"/>
<path d="M1515 1804 c-70 -36 -102 -84 -106 -160 -4 -76 43 -143 121 -171 46
-16 74 -16 115 1 71 30 115 90 115 159 0 68 -29 118 -90 156 -57 35 -107 40
-155 15z m170 -54 c63 -61 70 -139 18 -200 -71 -84 -179 -79 -247 12 -14 19
-20 43 -20 78 0 57 20 91 75 128 28 20 43 23 87 20 43 -4 59 -11 87 -38z"/>
<path d="M451 905 c-30 -9 -69 -24 -87 -35 -67 -42 -132 -134 -171 -244 -21
-60 -43 -228 -43 -333 l0 -93 78 0 c97 0 303 33 376 61 170 63 256 175 256
333 0 64 -5 82 -35 144 -27 54 -48 80 -86 108 -88 65 -191 86 -288 59z m214
-43 c56 -30 110 -83 135 -133 26 -50 29 -66 32 -146 1 -51 -4 -72 -30 -125
-37 -75 -82 -116 -179 -159 -90 -41 -173 -58 -322 -66 l-124 -6 6 146 c6 158
20 223 70 326 37 78 85 128 158 165 49 25 62 27 134 23 56 -3 92 -10 120 -25z"/>
<path d="M431 675 c-45 -41 -71 -105 -71 -175 0 -68 19 -89 78 -86 81 5 134
25 175 67 33 35 37 46 37 91 0 46 -4 54 -44 94 -39 39 -48 44 -90 44 -39 0
-52 -6 -85 -35z m158 -21 c40 -33 49 -81 25 -130 -24 -48 -76 -75 -159 -82
l-65 -5 0 62 c0 70 17 119 54 156 35 35 103 35 145 -1z"/>
</g>
</svg>
