<?xml version="1.0" standalone="no"?>
<!DOCTYPE svg PUBLIC "-//W3C//DTD SVG 20010904//EN"
 "http://www.w3.org/TR/2001/REC-SVG-20010904/DTD/svg10.dtd">
<svg version="1.0" xmlns="http://www.w3.org/2000/svg"
 width="223.000000pt" height="229.000000pt" viewBox="0 0 223.000000 229.000000"
 preserveAspectRatio="xMidYMid meet">
<metadata>
Created by potrace 1.10, written by Peter Selinger 2001-2011
</metadata>
<g transform="translate(0.000000,229.000000) scale(0.100000,-0.100000)"
fill="#000000" stroke="none">
<path d="M1627 2109 c-155 -15 -329 -85 -459 -186 -62 -47 -170 -167 -215
-239 l-27 -43 -206 -3 c-231 -3 -249 -8 -321 -85 -30 -31 -188 -285 -238 -380
-18 -34 -13 -70 13 -100 l24 -28 284 -5 c283 -5 283 -5 334 -32 60 -32 118
-93 147 -156 20 -44 22 -68 27 -325 l5 -279 29 -25 c22 -19 36 -23 58 -19 45
9 388 216 430 259 59 61 68 103 68 323 l0 192 80 56 c155 109 262 239 329 400
55 131 65 193 65 386 1 250 -12 271 -177 290 -93 11 -125 11 -250 -1z m54
-355 c83 -78 78 -168 -14 -238 -26 -20 -45 -26 -84 -26 -42 0 -55 5 -91 36
-71 61 -79 143 -19 211 40 45 60 54 125 50 42 -3 59 -10 83 -33z"/>
<path d="M478 910 c-63 -11 -143 -56 -185 -105 -49 -56 -100 -167 -118 -255
-9 -41 -18 -137 -22 -212 l-6 -138 61 0 c81 0 283 27 352 46 136 39 240 124
280 230 40 107 16 246 -57 329 -72 82 -193 124 -305 105z m112 -257 c22 -20
33 -40 36 -68 11 -82 -67 -143 -183 -144 l-53 -1 0 63 c0 71 25 135 61 161 38
26 103 21 139 -11z"/>
</g>
</svg>
